<svg width="21" height="19" viewBox="0 0 21 19" fill="none" xmlns="http://www.w3.org/2000/svg">
<path d="M18.6871 1.60133C18.1791 1.0934 17.5761 0.690543 16.9124 0.415779C16.2487 0.141015 15.5374 -0.000269351 14.819 3.85501e-07C14.1007 0.000270122 13.3895 0.142089 12.726 0.417351C12.0625 0.692613 11.4598 1.09592 10.9522 1.60423L10.2897 2.27483L9.6327 1.60568L9.62843 1.60141C9.12074 1.09372 8.51803 0.691002 7.85471 0.416242C7.19138 0.141482 6.48043 6.5072e-05 5.76245 6.5072e-05C5.04447 6.5072e-05 4.33353 0.141482 3.6702 0.416242C3.00687 0.691002 2.40416 1.09372 1.89648 1.60141L1.60133 1.89656C0.576014 2.92188 0 4.3125 0 5.76252C0 7.21253 0.576014 8.60316 1.60133 9.62847L9.39107 17.4181L10.2708 18.3398L10.2917 18.3188L10.3145 18.3416L11.1387 17.472L18.9822 9.62835C20.006 8.60222 20.5809 7.21189 20.5809 5.76239C20.5809 4.31289 20.006 2.92256 18.9822 1.89643L18.6871 1.60133ZM18.0155 8.66187L10.2917 16.3858L2.56776 8.66187C1.79878 7.89289 1.36677 6.84992 1.36677 5.76241C1.36677 4.6749 1.79878 3.63194 2.56776 2.86295L2.86295 2.5678C3.63156 1.7992 4.6739 1.36722 5.76087 1.36681C6.84784 1.3664 7.89051 1.7976 8.65969 2.56562L10.2868 4.22234L11.9216 2.5678C12.3023 2.18703 12.7544 1.88499 13.2519 1.67892C13.7494 1.47285 14.2826 1.36679 14.8211 1.36679C15.3595 1.36679 15.8928 1.47285 16.3902 1.67892C16.8877 1.88499 17.3398 2.18703 17.7205 2.5678L18.0157 2.86291C18.7835 3.63253 19.2147 4.67529 19.2147 5.76243C19.2146 6.84956 18.7834 7.8923 18.0155 8.66187Z" fill="black"/>
</svg>
