<svg width="19" height="20" viewBox="0 0 19 20" fill="none" xmlns="http://www.w3.org/2000/svg">
<path d="M5.7 3.16821V4.43488H17.7333V6.94228L16.3281 11.4015H5.30148L3.71814 0H0V1.26667H2.61519L4.19852 12.6682H17.2571L19 7.13711V3.16821H5.7Z" fill="black"/>
<path d="M6.37226 13.9469C5.70061 13.9477 5.0567 14.2148 4.58177 14.6897C4.10684 15.1647 3.83969 15.8086 3.83893 16.4802C3.83893 17.1521 4.10583 17.7965 4.58092 18.2716C5.05602 18.7467 5.70038 19.0136 6.37226 19.0136C7.04414 19.0136 7.68851 18.7467 8.1636 18.2716C8.63869 17.7965 8.90559 17.1521 8.90559 16.4802C8.90484 15.8086 8.63769 15.1647 8.16277 14.6897C7.68784 14.2148 7.04391 13.9477 6.37226 13.9469ZM6.37226 17.7469C6.12174 17.7469 5.87684 17.6726 5.66854 17.5334C5.46024 17.3942 5.29789 17.1964 5.20201 16.965C5.10614 16.7335 5.08106 16.4788 5.12993 16.2331C5.17881 15.9874 5.29945 15.7617 5.47659 15.5846C5.65374 15.4074 5.87944 15.2868 6.12515 15.2379C6.37086 15.189 6.62554 15.2141 6.85699 15.31C7.08845 15.4059 7.28627 15.5682 7.42546 15.7765C7.56464 15.9848 7.63893 16.2297 7.63893 16.4802C7.63853 16.8161 7.50495 17.138 7.26749 17.3755C7.03003 17.6129 6.70808 17.7465 6.37226 17.7469Z" fill="black"/>
<path d="M15.239 13.9469C14.5673 13.9477 13.9234 14.2148 13.4485 14.6897C12.9735 15.1647 12.7064 15.8086 12.7056 16.4802C12.7056 17.1521 12.9725 17.7965 13.4476 18.2716C13.9227 18.7467 14.5671 19.0136 15.239 19.0136C15.9108 19.0136 16.5552 18.7467 17.0303 18.2716C17.5054 17.7965 17.7723 17.1521 17.7723 16.4802C17.7715 15.8086 17.5044 15.1647 17.0295 14.6897C16.5545 14.2148 15.9106 13.9477 15.239 13.9469ZM15.239 17.7469C14.9884 17.7469 14.7435 17.6726 14.5352 17.5334C14.3269 17.3942 14.1646 17.1964 14.0687 16.965C13.9728 16.7335 13.9478 16.4788 13.9966 16.2331C14.0455 15.9874 14.1661 15.7617 14.3433 15.5846C14.5204 15.4074 14.7461 15.2868 14.9918 15.2379C15.2376 15.189 15.4922 15.2141 15.7237 15.31C15.9551 15.4059 16.153 15.5682 16.2922 15.7765C16.4313 15.9848 16.5056 16.2297 16.5056 16.4802C16.5052 16.8161 16.3716 17.138 16.1342 17.3755C15.8967 17.6129 15.5748 17.7465 15.239 17.7469Z" fill="black"/>
</svg>
