<svg width="61" height="79" viewBox="0 0 61 79" fill="none" xmlns="http://www.w3.org/2000/svg">
<g filter="url(#filter0_d_47_204)">
<path d="M29.44 60.5067L33.0569 39.3604C33.3109 37.8753 32.4202 36.4054 30.921 36.2559C29.7006 36.1341 28.5321 36.1714 27.6146 36.32C26.6613 36.4744 26.0932 37.3342 25.997 38.2951L23.7872 60.363C23.3013 65.2158 26.5689 71.1657 31.0648 69.2756C32.7402 68.5712 33.5339 67.5665 34.7937 66.2565L35.151 65.885L37.2512 63.4956L41.7516 57.3894L45.9519 51.5487L47.9324 48.5577C48.4867 47.7206 49.7909 48.131 49.7659 49.1346L49.3264 66.8288C49.2854 68.4811 50.5886 69.8554 52.2407 69.9021L52.764 69.9169C54.3966 69.9631 55.7635 68.7035 55.8115 67.071C56.0822 57.8548 56.1503 38.9964 55.4027 37.2955C55.0682 36.5343 54.2388 36.1478 53.3143 36.0505C50.7593 35.7816 49.0945 38.3388 47.5819 40.4154C41.7321 48.4465 32.9923 60.3913 32.1508 61.3221C31.4171 62.1335 30.5784 62.3249 29.8889 61.8962C29.439 61.6165 29.3507 61.0288 29.44 60.5067Z" fill="url(#paint0_radial_47_204)"/>
<path d="M29.44 60.5067L33.0569 39.3604C33.3109 37.8753 32.4202 36.4054 30.921 36.2559C29.7006 36.1341 28.5321 36.1714 27.6146 36.32C26.6613 36.4744 26.0932 37.3342 25.997 38.2951L23.7872 60.363C23.3013 65.2158 26.5689 71.1657 31.0648 69.2756C32.7402 68.5712 33.5339 67.5665 34.7937 66.2565L35.151 65.885L37.2512 63.4956L41.7516 57.3894L45.9519 51.5487L47.9324 48.5577C48.4867 47.7206 49.7909 48.131 49.7659 49.1346L49.3264 66.8288C49.2854 68.4811 50.5886 69.8554 52.2407 69.9021L52.764 69.9169C54.3966 69.9631 55.7635 68.7035 55.8115 67.071C56.0822 57.8548 56.1503 38.9964 55.4027 37.2955C55.0682 36.5343 54.2388 36.1478 53.3143 36.0505C50.7593 35.7816 49.0945 38.3388 47.5819 40.4154C41.7321 48.4465 32.9923 60.3913 32.1508 61.3221C31.4171 62.1335 30.5784 62.3249 29.8889 61.8962C29.439 61.6165 29.3507 61.0288 29.44 60.5067Z" fill="url(#paint1_linear_47_204)" fill-opacity="0.2"/>
<path d="M29.44 60.5067L33.0569 39.3604C33.3109 37.8753 32.4202 36.4054 30.921 36.2559C29.7006 36.1341 28.5321 36.1714 27.6146 36.32C26.6613 36.4744 26.0932 37.3342 25.997 38.2951L23.7872 60.363C23.3013 65.2158 26.5689 71.1657 31.0648 69.2756C32.7402 68.5712 33.5339 67.5665 34.7937 66.2565L35.151 65.885L37.2512 63.4956L41.7516 57.3894L45.9519 51.5487L47.9324 48.5577C48.4867 47.7206 49.7909 48.131 49.7659 49.1346L49.3264 66.8288C49.2854 68.4811 50.5886 69.8554 52.2407 69.9021L52.764 69.9169C54.3966 69.9631 55.7635 68.7035 55.8115 67.071C56.0822 57.8548 56.1503 38.9964 55.4027 37.2955C55.0682 36.5343 54.2388 36.1478 53.3143 36.0505C50.7593 35.7816 49.0945 38.3388 47.5819 40.4154C41.7321 48.4465 32.9923 60.3913 32.1508 61.3221C31.4171 62.1335 30.5784 62.3249 29.8889 61.8962C29.439 61.6165 29.3507 61.0288 29.44 60.5067Z" stroke="#DFAEEE"/>
</g>
<g filter="url(#filter1_f_47_204)">
<ellipse cx="30.351" cy="29.115" rx="4.65039" ry="4.11504" fill="#DBFB00"/>
<path d="M34.5013 29.115C34.5013 31.0559 32.7024 32.7301 30.351 32.7301C27.9995 32.7301 26.2006 31.0559 26.2006 29.115C26.2006 27.1742 27.9995 25.5 30.351 25.5C32.7024 25.5 34.5013 27.1742 34.5013 29.115Z" stroke="black"/>
</g>
<ellipse cx="30.351" cy="29.115" rx="4.65039" ry="4.11504" fill="#DBFB00"/>
<defs>
<filter id="filter0_d_47_204" x="19.2394" y="35.5308" width="41.2606" height="42.8873" filterUnits="userSpaceOnUse" color-interpolation-filters="sRGB">
<feFlood flood-opacity="0" result="BackgroundImageFix"/>
<feColorMatrix in="SourceAlpha" type="matrix" values="0 0 0 0 0 0 0 0 0 0 0 0 0 0 0 0 0 0 127 0" result="hardAlpha"/>
<feOffset dy="4"/>
<feGaussianBlur stdDeviation="2"/>
<feComposite in2="hardAlpha" operator="out"/>
<feColorMatrix type="matrix" values="0 0 0 0 0 0 0 0 0 0 0 0 0 0 0 0 0 0 0.25 0"/>
<feBlend mode="normal" in2="BackgroundImageFix" result="effect1_dropShadow_47_204"/>
<feBlend mode="normal" in="SourceGraphic" in2="effect1_dropShadow_47_204" result="shape"/>
</filter>
<filter id="filter1_f_47_204" x="0.700562" y="0" width="59.3008" height="58.2301" filterUnits="userSpaceOnUse" color-interpolation-filters="sRGB">
<feFlood flood-opacity="0" result="BackgroundImageFix"/>
<feBlend mode="normal" in="SourceGraphic" in2="BackgroundImageFix" result="shape"/>
<feGaussianBlur stdDeviation="12.5" result="effect1_foregroundBlur_47_204"/>
</filter>
<radialGradient id="paint0_radial_47_204" cx="0" cy="0" r="1" gradientUnits="userSpaceOnUse" gradientTransform="translate(39.5 53.0128) rotate(121.11) scale(31.9342 29.2214)">
<stop stop-color="#DFAEEE"/>
<stop offset="1" stop-color="#81249C"/>
</radialGradient>
<linearGradient id="paint1_linear_47_204" x1="30.8007" y1="36.1505" x2="59.4651" y2="85.3091" gradientUnits="userSpaceOnUse">
<stop stop-color="#DFAEEE"/>
<stop offset="1" stop-color="white"/>
</linearGradient>
</defs>
</svg>
