<svg width="49" height="48" viewBox="0 0 49 48" fill="none" xmlns="http://www.w3.org/2000/svg">
<path d="M46.4263 38.4265L38.3063 30.3065L32.0606 27.7261C34.1402 24.7687 35.2543 21.2405 35.2503 17.6252C35.2503 7.90659 27.3437 0 17.6252 0C7.90659 0 0 7.90659 0 17.6252C0 27.3437 7.90659 35.2503 17.6252 35.2503C21.272 35.2545 24.8293 34.1211 27.8016 32.008L30.3753 38.2369L38.495 46.3573C39.0157 46.8781 39.6339 47.2912 40.3143 47.573C40.9947 47.8549 41.724 48 42.4604 48C43.1969 48 43.9262 47.855 44.6066 47.5732C45.287 47.2914 45.9053 46.8783 46.426 46.3575C46.9468 45.8368 47.3599 45.2186 47.6418 44.5382C47.9236 43.8578 48.0687 43.1285 48.0687 42.3921C48.0688 41.6556 47.9237 40.9263 47.6419 40.2459C47.3601 39.5655 46.947 38.9472 46.4263 38.4265ZM3.20458 17.6252C3.20458 9.67381 9.67381 3.20458 17.6252 3.20458C25.5765 3.20458 32.0458 9.67381 32.0458 17.6252C32.0458 25.5765 25.5765 32.0458 17.6252 32.0458C9.67381 32.0458 3.20458 25.5765 3.20458 17.6252ZM44.1602 44.0914C43.7091 44.5414 43.0979 44.7942 42.4606 44.7942C41.8234 44.7942 41.2122 44.5414 40.7611 44.0914L33.0929 36.4232L30.7001 30.6314L36.4921 33.0243L44.1604 40.6924C44.6104 41.1435 44.8631 41.7547 44.863 42.3919C44.863 43.0291 44.6102 43.6403 44.1602 44.0914Z" fill="black"/>
</svg>
